<?xml version="1.0" encoding="UTF-8"?>
<svg xmlns="http://www.w3.org/2000/svg" viewBox="0 0 64 64" width="64" height="64">
  <!-- Brave-inspired lion head icon -->
  <!-- Outer head shape -->
  <path d="M32 4 C18 4 10 14 10 26 C10 34 13 40 18 46 L20 52 C21 56 24 60 32 60 C40 60 43 56 44 52 L46 46 C51 40 54 34 54 26 C54 14 46 4 32 4 Z"
        fill="#FB542B"/>
  <!-- Mane / ears highlight -->
  <path d="M16 16 C12 20 10 23 10 26 C10 26 14 22 18 24 Z" fill="#E8400A"/>
  <path d="M48 16 C52 20 54 23 54 26 C54 26 50 22 46 24 Z" fill="#E8400A"/>
  <!-- Face highlight -->
  <ellipse cx="32" cy="30" rx="14" ry="16" fill="#FDBA74"/>
  <!-- Eyes -->
  <ellipse cx="25" cy="26" rx="4" ry="4.5" fill="white"/>
  <ellipse cx="39" cy="26" rx="4" ry="4.5" fill="white"/>
  <circle cx="26" cy="27" r="2.5" fill="#1A1A2E"/>
  <circle cx="40" cy="27" r="2.5" fill="#1A1A2E"/>
  <circle cx="27" cy="26" r="0.8" fill="white"/>
  <circle cx="41" cy="26" r="0.8" fill="white"/>
  <!-- Nose -->
  <path d="M29 34 Q32 32 35 34 Q32 37 29 34 Z" fill="#C84B11"/>
  <!-- Mouth -->
  <path d="M27 38 Q32 42 37 38" stroke="#C84B11" stroke-width="1.5" fill="none" stroke-linecap="round"/>
  <!-- Forehead V mark (Brave logo motif) -->
  <path d="M28 14 L32 20 L36 14" stroke="white" stroke-width="2" fill="none" stroke-linecap="round" stroke-linejoin="round"/>
</svg>
